<?xml version="1.0" encoding="utf-8" ?><svg xmlns="http://www.w3.org/2000/svg" xmlns:xlink="http://www.w3.org/1999/xlink" width="1024" height="1024" viewBox="0 0 1024 1024"><path fill="white" d="M0 0L1024 0L1024 1024L0 1024L0 0Z"/><path fill="#1F1D1E" d="M511.172 540.511C533.131 540.302 554.956 543.943 575.658 551.268C610.655 563.603 641.725 585.055 665.663 613.409C670.551 619.185 677.676 628.269 680.929 634.995C670.415 639.58 663.045 643.177 653.4 649.704C666.481 671.85 675.475 689.227 680.651 715.001C688.438 755.038 682.693 796.527 664.32 832.942C660.468 840.488 655.586 847.644 650.901 854.702C646.392 850.653 642.139 847.156 637.433 843.341C636.333 844.602 635.201 845.835 634.038 847.039C600.751 881.594 560.251 902.699 511.556 903.76L511.507 925.62L511.503 942.451C496.029 942.418 480.624 940.399 465.664 936.444C415.789 923.296 370.24 889.233 344.239 844.629C353.968 840.131 358.877 838.088 368.266 832.296C363.39 822.153 358.633 812.046 355.05 801.361C342.093 762.486 343.167 720.3 358.085 682.134C361.646 672.844 367.141 662.212 371.598 653.278L366.977 649.956C372.639 641.386 379.101 633.372 386.276 626.022C420.617 590.757 462.997 576.07 511.375 575.37C511.433 563.835 511.243 552.063 511.172 540.511Z"/><path fill="white" d="M511.753 692.36C545.083 692.212 574.417 718.001 573.314 752.317C573.062 760.176 571.416 770.756 567.219 777.532C568.754 778.799 570.305 780.304 571.771 781.669C557.893 802.379 542.641 813.857 517.474 816.977C515.634 817.253 513.497 817.369 511.622 817.518C511.534 811.217 511.486 804.916 511.48 798.615C507.128 798.406 502.81 797.742 498.597 796.634C483.573 792.618 469.889 782.511 462.142 768.943C455.298 756.783 453.573 742.4 457.346 728.967L462.57 734.116C474.062 714.159 487.901 701.286 511.503 698.178L511.753 692.36Z"/><path fill="white" d="M394.022 673.009C419.377 635.134 465.134 607.266 511.394 608.368C510.745 615.543 511.008 626.332 511.03 633.685C503.404 634.039 496.087 634.29 488.597 635.579C463.134 639.963 440.46 653.204 423.409 672.492C418.925 677.564 414.374 682.685 410.932 688.575C409.187 687.019 407.424 685.484 405.644 683.969L405.11 684.288C404.857 685.722 400.192 696.523 399.335 699.037C396.716 706.726 395.007 713.681 393.564 721.662C389.605 744.66 391.8 768.295 399.925 790.171C401.331 793.903 403.812 799.925 406.08 803.193L397.699 810.63C404.449 819.873 410.148 827.931 418.2 836.158C442.768 861.053 476.207 875.188 511.182 875.462C511.287 883.956 511.17 892.667 511.153 901.179C504.325 901.234 497.501 900.789 490.738 899.846C453.526 894.747 419.359 876.527 394.392 848.468C388.161 841.583 382.893 834.118 377.312 826.709C380.677 824.206 384.015 821.667 387.325 819.092C382.074 808.014 377.894 799.475 374.543 787.441C362.747 745.07 368.504 706.728 389.598 668.722L394.022 673.009Z"/><path fill="#CCCACC" d="M405.11 684.288C401.68 681.514 398.196 677.706 395.319 674.347C398.191 676.097 403.223 681.473 405.644 683.969L405.11 684.288Z"/><path fill="white" d="M511.644 641.321C514.744 641.342 517.841 641.499 520.926 641.792C557.695 645.287 580.802 662.515 603.332 689.918L603.558 690.889L599.957 694.523L599.842 695.487C614.76 722.231 619.644 751.127 611.317 780.934C608.681 790.29 604.784 799.244 599.733 807.549C603.608 811.289 607.519 814.993 611.466 818.658C584.161 849.284 559.064 866.769 516.526 869.251C514.842 869.346 513.156 869.413 511.47 869.452L511.52 845.091C544.649 841.942 568.341 832.138 590.197 805.607C591.268 804.312 592.323 803.006 593.365 801.687C589.905 798.41 586.115 794.955 582.787 791.584C595.52 761.102 595.367 743.074 582.842 712.555L582.32 711.288L586.375 706.886C568.957 682.193 542.114 665.918 511.528 665.456L511.503 681.417C480.496 683.629 465.762 697.348 449.031 721.615C446.03 718.786 443.72 716.525 440.394 714.107L439.552 714.569C438.994 713.813 434.832 709.731 433.82 708.645L434.353 708.448C436.073 701.74 447.719 688.937 452.847 684.224C469.514 668.905 489.019 661.57 511.581 662.464L511.644 641.321Z"/><path fill="#CCCACC" d="M599.842 695.487C596.488 698.784 592.39 702.423 588.537 705.065L588.233 704.854L588.158 705.295L588.41 705.123L588.208 704.865C591.362 701.732 596.49 697.541 599.957 694.523L599.842 695.487Z"/><path fill="#CCCACC" d="M434.353 708.448C436.657 710.451 438.295 711.876 440.394 714.107L439.552 714.569C438.994 713.813 434.832 709.731 433.82 708.645L434.353 708.448Z"/><path fill="white" d="M422.701 698.84C425.787 701.515 431.13 705.911 433.82 708.645C434.832 709.731 438.994 713.813 439.552 714.569C432.175 729.258 432.644 756.544 440.03 771.175C439.294 771.906 437.661 773.61 436.924 774.158L437.336 774.703C441.627 779.876 444.42 785.522 449.705 791.303C466.765 809.963 486.262 820.215 511.458 821.724C511.536 828.995 511.484 836.266 511.3 843.534C504.121 843.584 496.957 842.855 489.935 841.362C459.359 834.767 437.006 815.854 420.315 790.189L423.17 787.093C409.442 756.756 410.756 729.493 422.107 698.898L422.701 698.84Z"/><path fill="#CCCACC" d="M436.924 774.158L437.336 774.703C433.258 777.527 428.574 784.216 424.252 786.302C425.493 784.131 434.672 775.537 436.924 774.158Z"/><path fill="white" d="M634.186 664.56C656.922 698.349 665.328 739.777 657.561 779.756C653.427 800.602 645.334 820.462 633.721 838.261C628.137 833.56 621.806 827.969 616.576 822.858C636.426 790.199 642.187 756.088 633.482 718.694C629.938 703.469 624.149 692.226 616.205 678.962C619.582 675.676 623.702 671.638 627.562 668.983C629.465 668.099 632.379 665.855 634.186 664.56Z"/><path fill="white" d="M511.488 581.683C571.006 581.289 612.533 607.295 647.544 653.552C643.275 656.55 637.688 660.332 633.953 663.855L634.186 664.56C632.379 665.855 629.465 668.099 627.562 668.983L626.775 668.028C623.971 662.494 617.019 654.491 612.656 650.036C592.624 629.583 565.338 614.686 536.982 610.091C527.792 608.602 520.554 608.485 511.394 608.368C511.716 599.732 511.518 590.374 511.488 581.683Z"/><path fill="#CCCACC" d="M626.775 668.028C628.799 667.725 632.147 665.105 633.953 663.855L634.186 664.56C632.379 665.855 629.465 668.099 627.562 668.983L626.775 668.028Z"/><path fill="#322F31" d="M603.332 689.918C606.218 688.298 612.672 680.772 614.549 680.564C612.659 683.245 606.491 689.73 603.558 690.889L603.332 689.918Z"/><path fill="#322F31" d="M422.107 698.898C419.742 696.663 417.362 694.66 415.541 691.984C418.074 693.645 421.244 696.153 422.701 698.84L422.107 698.898Z"/><path fill="#1F1D1E" d="M181.985 186.462C211.223 186.227 240.342 202.667 255.176 227.893C249.922 229.652 246.789 231.818 242.101 234.785C249.718 246.406 253.874 256.206 255.346 270.305C257.259 288.625 252.654 308.432 240.873 322.886L235.445 317.972C217.475 335.457 207.383 342.637 181.621 344.333L181.638 355.125L181.765 360.631C175.334 360.47 168.945 359.543 162.734 357.872C140.119 352.016 120.834 337.261 109.267 316.965C114.116 315.111 117.061 313.767 120.753 310.033C108.491 287.597 110.836 261.299 123.607 239.739L119.113 235.605C134.54 214.053 155.307 202.473 181.989 202.417L181.985 186.462Z"/><path fill="white" d="M181.899 231.229C191.399 230.731 198.076 233.055 206.295 237.797C210.162 240.029 218.945 247.724 219.903 251.764C219.241 253.031 219.023 253.298 218.694 254.709C228.054 265.211 228.122 292.814 217.88 302.363C219.796 303.855 221.716 305.502 223.589 307.06C212.067 323.058 199.815 326.272 181.507 330.169L181.491 318.49C198.65 316.306 204.095 313.21 216.269 300.507C214.669 298.774 213.053 297.055 211.421 295.352L212.089 294.645C218.18 282.747 217.683 272.822 211.748 261.081L213.901 258.91C203.511 246.192 197.852 243.908 182.006 239.879L182.243 247.286C166.289 250.5 164.483 252.395 154.503 264.785C153.956 265.465 153.721 263.101 151.516 264.676C148.729 269.638 149.454 281.217 151.236 286.556C155.614 299.673 168.703 306.595 181.587 307.147C181.775 310.036 181.632 314.298 181.62 317.295C178.671 316.933 175.625 316.608 172.572 315.886C160.775 313.098 147.126 305.964 143.072 293.722C143.314 293.163 143.555 292.603 143.796 292.044C142.905 288.805 141.336 285.744 140.648 282.452C139.565 277.383 140.838 261.61 145.028 258.161L146.26 258.961C146.552 258.943 146.845 258.925 147.137 258.907C156.481 245.465 166.166 239.464 182.625 239.273C182.355 236.594 182.113 233.913 181.899 231.229Z"/><path fill="white" d="M181.425 298.675C172.56 296.283 166.595 294.5 161.258 285.9C159.298 282.742 157.636 277.056 158.849 273.38C160.779 267.532 167.087 260.877 172.34 257.765C176.951 255.034 179.629 255.656 183.875 253.515C183.958 253.497 184.041 253.479 184.124 253.462C203.502 253.582 211.654 273.837 205.933 290.326C202.214 301.045 191.687 305.134 181.587 307.147L181.425 298.675Z"/><path fill="white" d="M176.857 217.211C177.97 217.074 180.748 217.102 181.993 217.078L181.969 227.206C171.324 227.792 164.869 228.907 155.363 234.051C134.136 245.539 124.931 276.502 137.192 297.609C135.496 299.315 133.647 300.929 131.857 302.543C145.984 321.539 158.119 329.064 181.496 331.083C181.566 333.481 182.091 341.358 180.967 343.144L179.876 343.214C155.327 340.879 136.358 330.899 123.86 309.246L129.718 304.488C120.224 289.644 120.47 267.821 127.737 252.339C130.088 247.33 131.432 243.118 135.057 238.78C145.559 226.307 160.606 218.543 176.857 217.211Z"/><path fill="white" d="M182.196 203.676C205.942 204.979 226.693 214.7 239.555 235.462C239.168 236.978 239.031 236.618 237.269 237.754L231.689 241.436C214.927 224.067 207.143 218.092 182.036 215.821C181.979 211.998 181.782 207.399 182.196 203.676Z"/><path fill="white" d="M232.214 241.883C239.987 243.062 244.408 264.443 245.195 270.989C246.911 285.262 243.5 300.747 235.575 312.779C234.816 313.931 233.969 315.037 232.657 315.188C230.413 313.355 228.318 311.474 226.156 309.548C228.729 305.885 230.771 301.876 232.22 297.641C238.676 279.07 235.265 263.876 226.938 246.846C228.576 245.11 230.441 243.492 232.214 241.883Z"/><path fill="#322F31" d="M211.421 295.352C210.256 294.451 207.795 292.837 208.034 291.273C209.776 291.8 210.824 293.27 212.089 294.645L211.421 295.352Z"/><path fill="#1F1D1E" d="M573.546 214.496L574.227 214.63C575.088 216.952 574.783 246.615 575.012 252.408C580.343 246.552 583.528 243.679 591.734 242.984C598.232 242.642 603.439 245.053 607.038 250.306C612.925 258.901 610.573 294.269 616.563 299.829L617.217 299.471C623.829 288.006 623.03 263.163 615.421 252.011C621.849 248.852 633.452 244.604 640.367 242.402L640.324 252.895C640.521 252.545 640.725 252.199 640.934 251.857C646.543 242.606 653.185 240.283 662.705 246.342C667.581 263.092 655.32 270.782 642.062 258.994C639.589 266.517 639.78 279.057 640.271 287.125C640.695 294.909 641.96 297.956 647.49 303.085C627.292 303.238 607.094 303.245 586.896 303.106C595.449 293.353 593.003 279.185 591.985 267.244C590.585 250.806 573.905 253.772 574.923 270.249C575.704 282.891 571.903 292.795 582.005 303.247C570.626 303.192 559.247 303.243 547.869 303.4C560.85 290.098 554.705 268.966 556.024 251.73C556.758 242.129 555.192 231.79 549.812 223.595L573.546 214.496Z"/><path fill="#1F1D1E" d="M449.209 223.871C457.516 220.413 465.908 217.164 474.378 214.127L474.372 271.634C480.253 266.211 487.317 259.966 492.035 253.663C496.46 247.754 490.603 245.834 486.427 244.079C502.186 243.088 520.316 248.842 528.293 232.441C529.404 230.156 532.46 225.378 534.554 224.227C534.641 224.344 534.637 241.897 534.708 243.902C534.591 246.033 533.71 250.516 534.809 251.866C535.008 259.915 533.819 281.377 536.276 288.27C538.399 294.227 551.277 289.225 552.79 289.513C552.843 291.871 551.677 293.37 550.22 295.239C542.9 305.991 518.447 308.159 516.613 292.471C514.931 278.076 516.162 261.068 515.54 246.4C511.669 246.457 509.552 246.502 505.745 245.994C500.214 251.272 494.741 256.611 489.327 262.009C498.602 276.56 504.573 291.2 516.908 303.149C504.78 303.273 492.53 303.168 480.39 303.144C492.618 295.12 483.172 283.445 477.886 274.057L473.982 277.527C474.095 286.173 473.336 297.431 480.907 303.112C469.967 302.924 458.846 303.18 447.847 303.053C450.447 300.335 454.109 296.013 454.626 291.97C456.513 277.186 455.322 261.97 455.79 247.068C456.06 238.479 454.106 231.034 449.209 223.871Z"/><path fill="#1F1D1E" d="M838.18 228.573C847.384 227.905 853.975 234.426 848.558 243.119C843.734 250.859 835.044 242.757 830.898 243.545C830.753 244.257 830.68 243.875 831.373 244.452C835.876 248.197 838.933 249.405 841.676 254.902C844.584 260.76 845.013 267.54 842.867 273.718C838.888 285.081 827.518 290.472 816.114 290.994C809.802 291.283 806.488 289.276 800.909 287.377L800.103 287.786C800.028 288.569 799.754 289.828 800.596 290.422C808.213 294.507 817.741 292.303 826.79 293.727C848.631 297.162 847.899 318.22 831.084 328.647C821.965 334.301 811.646 333.986 800.863 331.139C795.133 329.1 786.354 323.347 787.521 318.047C790.546 303.823 804.275 311.916 811.529 318.214C818.519 324.284 837.713 328.801 836.905 314.675C836.079 300.246 801.796 311.319 794.239 303.043C789.186 297.509 793.492 289.824 797.763 285.48C796.613 284.289 795.544 283.023 794.561 281.692C792.933 279.456 791.399 276.042 790.852 273.338C786.359 251.108 806.662 238.724 825.915 242.214C829.014 235.065 830.94 231.89 838.18 228.573Z"/><path fill="white" d="M804.919 249.045C815.482 248.538 822.85 255.835 827.669 264.399C831.015 270.345 836.286 280.263 828.174 284.499C817.153 285.306 809.32 276.131 804.551 267.287C801.674 261.952 797.31 252.263 804.919 249.045Z"/><path fill="#1F1D1E" d="M868.786 214.565L869.101 214.815C870.042 217.654 869.496 247.31 869.491 252.147C874.155 247.833 880.355 242.303 886.926 242.704C916.364 244.501 897.292 287.195 914.445 303.246C903.458 303.294 892.471 303.264 881.484 303.158C890.044 294.178 888.216 272.315 885.178 261.226C882.405 256.114 877.852 254.702 872.821 258.748C870.185 260.867 869.226 267.281 869.314 270.745C869.597 281.963 867.651 294.326 876.008 303.214C865.506 303.386 853.584 303.664 843.182 303.122C855.806 290.701 848.543 264.795 850.6 248.939C852.212 236.523 857.204 233.037 844.263 224.252C851.34 220.826 861.293 217.204 868.786 214.565Z"/><path fill="#1F1D1E" d="M688.891 242.767C705.711 240.748 720.988 252.735 723.027 269.553C725.066 286.371 713.096 301.662 696.281 303.72C679.437 305.782 664.116 293.788 662.073 276.943C660.031 260.097 672.043 244.789 688.891 242.767Z"/><path fill="white" d="M678.211 253.112C693.543 252.156 708.5 270.033 712.582 283.565C714.323 289.339 712.398 293.143 706.478 294.354C692.641 293.664 682.303 281.866 675.899 270.659C672.008 263.849 667.965 255.922 678.211 253.112Z"/><path fill="#1F1D1E" d="M360.065 214.495L360.873 214.421C362.819 216.985 360.186 280.751 362.18 291.603C362.877 295.395 364.139 298.295 366.197 301.517C370.222 294.149 370.305 288.839 370.501 280.72C370.797 268.416 370.187 262.307 364.301 251.608C371.728 249.341 381.49 244.488 388.986 241.343C389.869 249.323 389.462 266.212 389.484 274.75C389.423 284.521 388.292 296.421 396.766 302.992L335.027 303.084C345.818 292.917 342.34 274.334 342.747 260.762C343.174 246.499 343.446 236.653 336.754 223.875C344.595 220.842 352.116 217.413 360.065 214.495Z"/><path fill="#1F1D1E" d="M783.078 240.975L783.667 241.2C784.756 244.305 783.492 267.787 783.94 272.702C784.961 283.915 781.062 293.763 790.543 302.785C782.509 303.299 773.631 303.18 765.515 303.211L765.408 292.501C761.62 297.473 757.119 302.999 750.442 303.868C722.771 307.468 730.262 278.728 727.649 261.761C726.193 256.681 725.238 255.177 722.097 251.051L746.887 241.229C747.012 247.984 742.432 299.354 758.983 289.06C769.464 282.541 765.73 260.333 759.065 250.82C766.627 247.308 775.26 244.073 783.078 240.975Z"/><path fill="#1F1D1E" d="M445.911 242.344C447.056 242.66 446.53 242.386 447.348 243.457C447.476 248.541 447.478 253.696 447.656 258.857C448.226 275.336 435.982 265.066 428.935 260.284C422.924 256.205 409.592 249.637 404.414 258.475C403.176 260.588 403.381 263.221 403.984 265.469C408.741 280.713 426.934 295.721 443.155 287.325C445.857 285.927 448.348 283.792 451.261 282.916L451.718 283.624C451.485 286.01 450.521 287.678 449.526 289.877C446.614 294.939 443.081 299.175 437.73 301.719C423.367 308.724 402.659 302.102 396.438 287.183C388.397 267.898 403.835 244.499 424.619 244.113C430.718 243.999 433.839 244.745 439.358 246.966L445.911 242.344Z"/><path fill="#1F1D1E" d="M333.274 241.899C334.572 243.555 334.098 249.299 334.202 251.387C335.716 282.12 322.72 262.103 308.965 256.359C291.818 249.2 285.263 261.043 295.735 275.1C300.916 282.056 308.097 287.029 316.592 289.428C324.141 291.56 331.842 286.433 337.948 282.67L338.507 282.964C338.828 285.76 337.022 288.532 335.676 290.954C329.23 301.562 316.34 306.397 304.438 303.451C268.655 294.596 277.254 245.043 312.055 244.286C317.518 244.167 321.084 244.96 326.35 246.418C329.023 244.452 330.339 243.518 333.274 241.899Z"/><path fill="#1F1D1E" d="M379.939 217.877C385.862 217.54 390.942 222.056 391.302 227.978C391.662 233.899 387.166 238.997 381.246 239.381C375.293 239.766 370.16 235.24 369.798 229.285C369.436 223.33 373.983 218.215 379.939 217.877Z"/><path fill="#322F31" d="M534.708 243.902C538.289 243.93 549.655 243.379 551.793 244.845C550.961 247.717 538.123 246.558 534.843 246.613L534.809 251.866C533.71 250.516 534.591 246.033 534.708 243.902Z"/></svg>